<?xml version="1.0" encoding="UTF-8" standalone="no"?>
<!-- Created with Inkscape (http://www.inkscape.org/) -->

<svg
   width="512"
   height="512"
   viewBox="0 0 135.46667 135.46667"
   version="1.1"
   id="svg12131"
   xml:space="preserve"
   inkscape:version="1.2.2 (b0a8486541, 2022-12-01)"
   sodipodi:docname="d9book.svg"
   xmlns:inkscape="http://www.inkscape.org/namespaces/inkscape"
   xmlns:sodipodi="http://sodipodi.sourceforge.net/DTD/sodipodi-0.dtd"
   xmlns="http://www.w3.org/2000/svg"
   xmlns:svg="http://www.w3.org/2000/svg"><sodipodi:namedview
     id="namedview12133"
     pagecolor="#ffffff"
     bordercolor="#666666"
     borderopacity="1.0"
     inkscape:showpageshadow="2"
     inkscape:pageopacity="0.0"
     inkscape:pagecheckerboard="0"
     inkscape:deskcolor="#d1d1d1"
     inkscape:document-units="mm"
     showgrid="false"
     inkscape:zoom="1.1893044"
     inkscape:cx="372.90705"
     inkscape:cy="335.49022"
     inkscape:window-width="1803"
     inkscape:window-height="1133"
     inkscape:window-x="0"
     inkscape:window-y="32"
     inkscape:window-maximized="1"
     inkscape:current-layer="layer1" /><defs
     id="defs12128" /><g
     inkscape:label="Layer 1"
     inkscape:groupmode="layer"
     id="layer1"><path
       id="path13680"
       style="fill:#ffffff;stroke:none;stroke-width:0.264583px;stroke-linecap:butt;stroke-linejoin:miter;stroke-opacity:1"
       d="M 15.45332 36.258769 C 14.830257 36.260424 14.206554 36.265587 13.582633 36.274272 L 13.582633 46.327405 L 2.7259318 46.890678 L 2.7259318 128.15859 C 24.962876 125.48359 47.155176 127.51121 67.926086 133.95461 C 88.696998 127.51121 110.88878 125.48359 133.12572 128.15859 L 133.12572 46.890678 L 122.26902 46.327405 L 122.26902 36.274272 C 102.42587 35.99806 82.953612 39.157865 67.926086 53.458236 C 53.371051 39.607421 34.646176 36.207778 15.45332 36.258769 z " /><g
       id="g12284"
       transform="matrix(3.4772558,0,0,3.4772558,-185.59173,-158.96952)"
       style="stroke:none;stroke-width:0.30972697;stroke-dasharray:none"><g
         id="g12270"
         style="stroke:none;stroke-width:0.30972697;stroke-dasharray:none"><path
           style="fill:#00ccff;stroke:none;stroke-width:0.30972697;stroke-linecap:butt;stroke-linejoin:miter;stroke-opacity:1;stroke-dasharray:none"
           d="M 55.187908,81.558857 V 60.105665 l 2.163397,-0.118597 v 19.460191 c 5.026232,-0.03077 9.652875,0.855185 13.604115,3.290615 -5.160198,-0.982831 -10.323734,-1.945079 -15.767512,-1.179017 z"
           id="path12264"
           sodipodi:nodetypes="cccccc" /><path
           style="fill:#00ccff;stroke:none;stroke-width:0.30972697;stroke-linecap:butt;stroke-linejoin:miter;stroke-opacity:1;stroke-dasharray:none"
           d="M 58.258397,78.612692 V 57.249853 c 5.116698,0.01332 10.096096,0.570225 14.183635,4.658064 V 82.925633 C 68.246906,79.472767 63.212177,78.781707 58.258397,78.612692 Z"
           id="path12266"
           sodipodi:nodetypes="ccccc" /></g><g
         id="g12276"
         transform="matrix(-1,0,0,1,145.79174,0)"
         style="stroke:none;stroke-width:0.30972697;stroke-dasharray:none"><path
           style="fill:#00ccff;stroke:none;stroke-width:0.30972697;stroke-linecap:butt;stroke-linejoin:miter;stroke-opacity:1;stroke-dasharray:none"
           d="M 55.187908,81.558857 V 60.105665 l 2.163397,-0.118597 v 19.460191 c 5.026232,-0.03077 9.652875,0.855185 13.604115,3.290615 -5.160198,-0.982831 -10.323734,-1.945079 -15.767512,-1.179017 z"
           id="path12272"
           sodipodi:nodetypes="cccccc" /><path
           style="fill:#00ccff;stroke:none;stroke-width:0.30972697;stroke-linecap:butt;stroke-linejoin:miter;stroke-opacity:1;stroke-dasharray:none"
           d="M 58.258397,78.612692 V 57.249853 c 5.116698,0.01332 10.096096,0.570225 14.183635,4.658064 V 82.925633 C 68.246906,79.472767 63.212177,78.781707 58.258397,78.612692 Z"
           id="path12274"
           sodipodi:nodetypes="ccccc" /></g></g><path
       style="fill:#0077c0;fill-opacity:1;stroke:#ffffff;stroke-width:3.865;stroke-linecap:butt;stroke-linejoin:miter;stroke-dasharray:none;stroke-opacity:1"
       d="M 69.023729,103.69835 C 49.266077,104.66295 30.571546,87.21539 30.310148,65.54416 30.145822,51.920699 40.002655,39.583439 48.818797,29.886399 55.750734,22.261832 64.345943,16.30163 68.187257,5.7188879 73.600273,15.755836 80.767772,23.181774 88.540208,30.556666 98.756335,40.250259 106.73676,52.967151 106.54761,66.514789 106.26684,86.62393 88.087899,102.76761 69.023729,103.69835 Z"
       id="path12298"
       sodipodi:nodetypes="ssscsss" /></g></svg>
